<?xml version="1.0" encoding="UTF-8"?>
<svg id="Layer_2" data-name="Layer 2" xmlns="http://www.w3.org/2000/svg" version="1.1" viewBox="-4 -4 244.9 76">
  <defs>
    <style>
      .cls-1 {
        fill: #6d8d76;
      }

      .cls-1, .cls-2 {
        stroke-width: 0px;
      }

      .cls-2 {
        fill: #053830;
      }
    </style>
  </defs>
  <g id="Layer_1-2" data-name="Layer 1-2">
    <g>
      <path class="cls-1" d="M65.7,67.8c-12.4-8-23.8-15.4-35.2-22.8-8.8-5.7-17.5-11.7-26.5-17.2C.9,25.8-.1,23.6,0,20.1.3,13.8,0,7.6,0,.2c10.7,7,20.7,13.4,30.6,19.9,10.3,6.7,20.5,13.5,30.9,20,2.9,1.9,4.4,3.9,4.2,7.6-.3,6.3,0,12.6,0,20.1Z"/>
      <path class="cls-1" d="M0,34.8c6.7,4.5,12.3,8.2,17.8,12.2,4.7,3.5,6.2,9.1,4.1,13.9-2.2,5-7.4,7.6-13,6.6C3.8,66.7.2,62.3.1,56.3c-.1-6.8,0-13.6,0-21.5Z"/>
      <path class="cls-1" d="M65.6,33.1c-7-4.9-13-8.8-18.7-13.1-4.2-3.2-5.2-8.7-3.1-13.3,2.1-4.6,7.7-7.6,12.6-6.6,5,1,8.9,5.1,9.1,10.2.2,7.2,0,14.3,0,22.7h0Z"/>
    </g>
    <path class="cls-2" d="M92.2,44.7c0-.5.3-.8,1-1.2.8-.5,1.3-1.2,1.3-4.9V6c0-1.5-.6-2-1.1-2.4-.4-.4-.6-.6-.6-1s.3-.7.8-.7h5.4c.8,0,1.4.3,1.9,1l25.2,37.7V9.9c0-4-1-5.2-3.1-6.1-1-.5-1.3-.7-1.3-1.2s.3-.7.8-.7h6.5c.4,0,.8.3.8.7s-.3.8-1,1.1c-.8.4-1.3,1.2-1.3,4.9v35.3c0,1-.5,1.5-1.5,1.5h-2.1c-.8,0-1.4-.3-1.9-1L95.8,5.6v31.7c0,4,1,5.2,3.1,6.1,1,.5,1.3.7,1.3,1.2s-.3.7-.8.7h-6.5c-.4,0-.8-.3-.8-.7h0Z"/>
    <path class="cls-2" d="M134.7,29.1c0-10.2,6.4-17,16.1-17s16.1,6.7,16.1,17-6.4,17-16.1,17-16.1-6.7-16.1-17ZM161.2,31c0-10.5-4.9-18.1-11.6-18.1s-9.3,6.1-9.3,14.4,4.9,18,11.6,18,9.3-6,9.3-14.3h0Z"/>
    <path class="cls-2" d="M172.3,44.8c0-.3.3-.6.5-.8.4-.5.9-.9.9-2v-25.5c0-1-.4-1.4-.9-1.9-.4-.4-.6-.6-.6-1s.3-.8.8-.8h4.3c1.3,0,2.1.9,2.1,2.2v3.8c2.5-4.1,6.6-6.7,11.1-6.7s8.5,2.6,9.5,6.9c2.5-4.2,6.8-6.9,11.4-6.9s9.8,3.6,9.8,9.5v20.3c0,1.1.4,1.5.9,2,.3.3.5.5.5.8s-.3.6-.7.6h-7c-.4,0-.7-.2-.7-.6s.3-.6.5-.8c.4-.5.9-.9.9-2v-20.9c0-3.9-2.6-6.4-6.4-6.4s-7,2.2-8.9,5.6c0,.5,0,1,0,1.5v20.3c0,1.1.4,1.5.9,2,.3.3.5.5.5.8s-.3.6-.7.6h-7c-.4,0-.7-.2-.7-.6s.3-.6.5-.8c.4-.5.9-.9.9-2v-20.9c0-3.9-2.6-6.4-6.4-6.4s-6.9,2.2-8.8,5.6v21.7c0,1.1.4,1.5.9,2,.3.3.5.5.5.8s-.3.6-.7.6h-7c-.4,0-.7-.2-.7-.6h0Z"/>
    <path class="cls-2" d="M228.4,44.8c0-.3.3-.6.5-.8.4-.5.9-.9.9-2v-25.5c0-1-.4-1.4-.9-1.9-.4-.4-.6-.6-.6-1s.3-.8.8-.8h4.3c1.3,0,2.1.9,2.1,2.2v26.9c0,1.1.4,1.5.9,2,.3.3.5.5.5.8s-.3.6-.7.6h-7c-.4,0-.7-.2-.7-.6h0ZM228.7,3.9c0-2.2,1.5-3.7,3.7-3.7s3.7,1.5,3.7,3.7-1.5,3.6-3.7,3.6-3.7-1.5-3.7-3.6Z"/>
    <g>
      <path class="cls-2" d="M99.2,64.1c0,.6-.2,1.1-.4,1.5s-.5.9-.9,1.2c-.4.3-.8.6-1.3.8-.5.2-1.1.3-1.8.3s-1.4-.1-2-.4c-.6-.2-1.1-.6-1.6-1.1-.4-.5-.8-1.1-1-1.8s-.4-1.6-.4-2.5.1-1.8.4-2.5.6-1.3,1.1-1.8,1-.9,1.6-1.1c.6-.2,1.2-.4,1.9-.4s1.3,0,1.8.3c.5.2.9.4,1.2.7.3.3.6.7.8,1.1.2.4.4.9.5,1.4l-.9.2c-.1-.5-.3-.9-.4-1.2s-.4-.7-.7-.9c-.3-.2-.6-.4-1-.6-.4-.1-.8-.2-1.4-.2s-1.2.1-1.6.4c-.5.2-.9.6-1.2,1s-.6,1-.8,1.6-.3,1.3-.3,2,0,1.4.3,2c.2.6.4,1.1.8,1.6.3.4.7.8,1.2,1,.5.2,1.1.4,1.7.4s1.1,0,1.5-.2c.4-.2.8-.4,1-.6.3-.3.5-.6.6-1,.2-.4.3-.8.3-1.2h1Z"/>
      <path class="cls-2" d="M109.1,56.5h1.1l4.4,11.1h-1l-1.3-3.4h-5.2l-1.3,3.4h-1l4.4-11.2h0ZM111.9,63.4l-2.3-5.8-2.3,5.8h4.6,0Z"/>
      <path class="cls-2" d="M120.8,56.5h3.6c.8,0,1.5,0,2,.3s.9.4,1.2.7c.3.3.5.6.6,1,.1.4.2.8.2,1.2s0,.9-.2,1.3c-.1.4-.3.8-.6,1.1-.3.3-.7.6-1.2.7-.5.2-1.2.3-2,.3h-2.6v4.5h-.9v-11.2h0ZM124.4,62.4c.6,0,1.1,0,1.5-.2s.7-.3.9-.5c.2-.2.4-.5.5-.8,0-.3.1-.7.1-1.1s0-.8-.1-1.1c0-.3-.3-.5-.5-.8-.2-.2-.6-.3-.9-.5s-.9-.2-1.5-.2h-2.6v5h2.6,0Z"/>
      <path class="cls-2" d="M135,56.5h.9v11.1h-.9s0-11.2,0-11.1Z"/>
      <path class="cls-2" d="M146.1,57.4h-3.9v-.9h8.7v.9h-3.9v10.3h-.9v-10.3Z"/>
      <path class="cls-2" d="M158.9,56.5h1.1l4.4,11.1h-1l-1.3-3.4h-5.2l-1.3,3.4h-1l4.4-11.2h0ZM161.7,63.4l-2.3-5.8-2.3,5.8h4.6,0Z"/>
      <path class="cls-2" d="M170.6,56.5h.9v10.3h6.1l-.2.9h-6.8s0-11.2,0-11.1Z"/>
    </g>
  </g>
</svg>