<?xml version="1.0" encoding="UTF-8"?>
<svg id="Layer_2" data-name="Layer 2" xmlns="http://www.w3.org/2000/svg" viewBox="0 0 65.78 67.82">
  <defs>
    <style>
      .cls-1 {
        fill: #6d8d76;
        stroke-width: 0px;
      }
    </style>
  </defs>
  <g id="Layer_2-2" data-name="Layer 2">
    <g>
      <path class="cls-1" d="M65.67,67.75c-12.36-8.01-23.79-15.4-35.2-22.83-8.81-5.73-17.51-11.65-26.45-17.18C.9,25.82-.13,23.61.01,20.09.27,13.83.09,7.55.09.2c10.74,6.97,20.67,13.41,30.59,19.86,10.28,6.68,20.51,13.45,30.87,20.01,2.95,1.86,4.41,3.9,4.21,7.59-.34,6.29-.09,12.61-.09,20.09Z"/>
      <path class="cls-1" d="M.09,34.85c6.65,4.54,12.34,8.25,17.82,12.25,4.73,3.45,6.22,9.07,4.11,13.91-2.16,4.96-7.38,7.61-12.97,6.6C3.75,66.66.22,62.33.12,56.31c-.11-6.79-.03-13.59-.03-21.46Z"/>
      <path class="cls-1" d="M65.63,33.14c-7.01-4.87-13.02-8.77-18.72-13.09-4.17-3.17-5.18-8.7-3.08-13.3,2.12-4.64,7.71-7.55,12.62-6.55,5.03,1.02,8.94,5.07,9.12,10.2.25,7.15.06,14.31.06,22.75h0Z"/>
    </g>
  </g>
</svg>